<svg width="64" height="64" id="Layer_1" version="1.1" xml:space="preserve" xmlns="http://www.w3.org/2000/svg"><style/><path d="M6.9 31.8c.4-.5 1-.8 1.7-.8.5 0 1 .2 1.4.5l6.3 4.1c1 .7 1.3 2.1.7 3.1-.7 1-2.1 1.3-3.1.7l-2.5-1.6c1.9 8.9 9.4 15.6 18.4 16.6V27.2h-8.1c-1.2 0-2.2-1-2.2-2.2 0-1.2 1-2.3 2.2-2.3h8.1v-4.1c-2.7-1-4.6-3.6-4.6-6.5 0-3.8 3.1-6.9 6.9-6.9 3.8 0 6.9 3.1 6.9 6.9 0 2.9-1.9 5.5-4.6 6.5v4.1h8.1c1.2 0 2.2 1 2.2 2.3 0 1.2-1 2.2-2.2 2.2h-8.1v27.1c9.1-1 16.5-7.7 18.4-16.6l-2.5 1.6c-1 .7-2.4.4-3.1-.7-.7-1-.4-2.4.7-3.1l6.3-4.1c.4-.3.9-.5 1.4-.5.7 0 1.3.3 1.7.8l5.3 5.4c.9.9.9 2.3 0 3.2-.9.9-2.3.9-3.2 0l-2-2.1c-5.6 28.1-45.1 26.4-50.3 0l-2 2.1c-.9.9-2.3.9-3.2 0-.9-.9-.9-2.3 0-3.2l5-5.3zM32 9.8c-1.3 0-2.4 1.1-2.4 2.4 0 1.3 1.1 2.4 2.4 2.4 1.3 0 2.4-1.1 2.4-2.4 0-1.4-1.1-2.4-2.4-2.4z" fill="#1379c2"/><path d="M6.9 31.8c.4-.5 1-.8 1.7-.8.5 0 1 .2 1.4.5l6.3 4.1c1 .7 1.3 2.1.7 3.1-.7 1-2.1 1.3-3.1.7l-2.5-1.6c1.9 8.9 9.4 15.6 18.4 16.6V27.2h-8.1c-1.2 0-2.2-1-2.2-2.2 0-1.2 1-2.3 2.2-2.3h8.1v-4.1c-2.7-1-4.6-3.6-4.6-6.5 0-3.8 3.1-6.9 6.9-6.9v4.5c-1.3 0-2.4 1.1-2.4 2.4 0 1.3 1.1 2.4 2.4 2.4v44.2c-11.4-.1-22.7-7.2-25.3-20.4l-2 2.1c-.9.9-2.3.9-3.2 0-.9-.9-.9-2.3 0-3.2l5.3-5.4z" fill="#358dcc"/><path d="M6.2 31.2c.6-.7 1.5-1.1 2.4-1.1.7 0 1.4.2 1.9.6l6.2 4.1c1.5 1 1.9 3 .9 4.4-1 1.5-3 1.9-4.4.9l-.3-.2c2.4 7 8.5 12.1 15.8 13.3v-25h-7.1c-1.8 0-3.2-1.4-3.2-3.2 0-1.8 1.4-3.2 3.2-3.2h7.1v-2.5c-2.8-1.3-4.6-4.1-4.6-7.1 0-4.3 3.5-7.8 7.8-7.8s7.8 3.5 7.8 7.8c0 3.1-1.8 5.9-4.6 7.1v2.5h7.1c1.8 0 3.2 1.4 3.2 3.2 0 1.8-1.4 3.2-3.2 3.2h-7.1v25C42.4 52 48.5 46.9 51 39.9l-.3.2c-.7.5-1.6.6-2.4.4-.8-.2-1.5-.6-2-1.4-.5-.7-.6-1.6-.4-2.4.2-.8.6-1.5 1.4-2l6.2-4.1c.3-.2.6-.4.9-.5.3-.1.7-.2 1-.2.5 0 .9.1 1.4.3.4.2.8.5 1.1.8l5.2 5.3c.6.6.9 1.5.9 2.3 0 .8-.3 1.6-1 2.3-.6.6-1.5.9-2.3.9-.8 0-1.6-.3-2.3-1l-.8-.8c-3.1 12.1-13.2 19.6-25.5 19.5-12 .1-22.7-7.3-25.8-19.3l-.8.8c-1.2 1.3-3.3 1.3-4.5 0-1.3-1.2-1.3-3.3 0-4.5l5.2-5.3zm1.4 1.3l-5.3 5.4c-.5.5-.5 1.3 0 1.8s1.3.5 1.8 0l2-2.1 1.3-1.3.4 1.8C10.1 50 20.3 57.7 32.2 57.8c12.2.1 21.6-7.6 24-19.7l.4-1.8 1.3 1.3 2 2.1c.2.3.6.4.9.4.3 0 .6-.1.9-.4.3-.2.4-.6.4-.9 0-.3-.1-.6-.4-.9l-5.3-5.4v-.1c-.1-.1-.3-.3-.4-.3-.2-.1-.3-.1-.5-.1-.1 0-.3 0-.4.1-.1 0-.3.1-.4.2h-.1l-6.3 4.1c-.3.2-.5.5-.6.8-.1.3 0 .7.2 1 .2.3.5.5.8.5.3.1.7 0 1-.2l2.5-1.6 1.5 1c-2 9.3-9.8 16.4-19.3 17.4l-1.1.1V26.2h9.1c.7 0 1.3-.6 1.3-1.3 0-.7-.6-1.3-1.3-1.3h-9.1v-5.8c2.7-.9 4.6-2.7 4.6-5.8 0-3.2-2.6-5.9-5.9-5.9-3.2 0-5.9 2.6-5.9 5.9 0 3.1 1.9 4.9 4.6 5.8v5.8h-9.1c-.7 0-1.3.6-1.3 1.3 0 .7.6 1.3 1.3 1.3h9.1v29.2l-1.1-.1c-9.5-1-17.3-8-19.3-17.4l1.5-1 2.5 1.6c.6.4 1.4.2 1.8-.4.4-.6.2-1.4-.4-1.8l-6.3-4.1c-.2-.1-.5-.2-.8-.2-.4 0-.7.2-1 .5zM32 10.8c-.8 0-1.4.6-1.4 1.4 0 .8.6 1.4 1.4 1.4.8 0 1.4-.6 1.4-1.4 0-.8-.6-1.4-1.4-1.4zm0-2c1.8 0 3.3 1.5 3.3 3.3 0 1.8-1.5 3.3-3.3 3.3-1.8 0-3.3-1.5-3.3-3.3 0-1.8 1.5-3.3 3.3-3.3z"/></svg>