<svg width="64" height="64" xmlns="http://www.w3.org/2000/svg"><style>.st2{fill:#8dd1d3}</style><g id="_x33_4-Baseball"><path d="M43 32c0 9 3.8 17 9.9 22.7-5.5 5.1-12.9 8.2-21 8.2s-15.4-3.1-21-8.2C17.1 49 21 41 21 32S17.1 15 11 9.3c5.5-5.1 12.9-8.2 21-8.2s15.4 3.1 21 8.2C46.9 15 43 23 43 32z" fill="#ffeea9"/><ellipse class="st2" cx="53" cy="32" rx="9.9" ry="22.7"/><ellipse class="st2" cx="11" cy="32" rx="9.9" ry="22.7"/><path d="M53.7 8.5C47.8 3 40.1 0 32 0S16.2 3 10.3 8.5C3.7 14.5 0 23.1 0 32s3.7 17.5 10.3 23.5C16.2 61 23.9 64 32 64s15.8-3 21.7-8.5C60.3 49.5 64 40.9 64 32S60.3 14.5 53.7 8.5zM53 53.1l-.8-.8-1-1c-.3-.4-.7-.8-1-1.3-.1-.1-.1-.2-.2-.3l.9-.6c.5-.3.6-1 .3-1.5s-1-.6-1.5-.3l-.9.7c-.1-.1-.2-.3-.3-.4-.2-.4-.5-.8-.7-1.2-.3-.5-.5-1-.7-1.5 0-.1-.1-.2-.1-.2l1-.4c.6-.2.8-.9.6-1.4-.2-.6-.9-.8-1.4-.6l-1 .4c-.1-.2-.1-.3-.2-.5-.1-.4-.3-.8-.4-1.2-.2-.6-.3-1.1-.5-1.7v-.1l1-.2c.6-.1 1-.7.9-1.3-.1-.6-.7-1-1.3-.9l-1 .2c0-.3-.1-.6-.1-.8 0-.3-.1-.7-.2-1-.1-.6-.1-1.3-.1-1.9h1c.6 0 1.1-.5 1.1-1.1s-.5-1.1-1.1-1.1h-1c0-.6 0-1.3.1-1.9 0-.3.1-.7.2-1 0-.3.1-.6.1-.8l1 .2h.2c.5 0 1-.4 1.1-.9.1-.6-.3-1.2-.9-1.3L45 25v-.1c.1-.6.3-1.2.5-1.7.1-.4.3-.8.4-1.2.1-.2.1-.3.2-.5l1 .4c.1.1.3.1.4.1.4 0 .8-.3 1-.7.2-.6 0-1.2-.6-1.4l-1-.4c0-.1.1-.2.1-.2.2-.5.5-1 .7-1.5.2-.4.5-.8.7-1.2.1-.1.2-.3.3-.4l.9.6c.2.1.4.2.6.2.4 0 .7-.2.9-.5.3-.5.2-1.2-.3-1.5l-.9-.6c.1-.1.1-.2.2-.3.3-.4.6-.9 1-1.3.3-.4.6-.7 1-1 .2-.3.5-.5.8-.8 5.6 5.6 8.8 13.2 8.8 21.1s-3.1 15.5-8.7 21zM11 10.9l.8.8 1 1c.3.4.7.8 1 1.3.1.1.1.2.2.3l-.9.6c-.5.3-.6 1-.3 1.5.2.3.6.5.9.5.2 0 .4-.1.6-.2l.9-.6c.1.1.2.3.3.4.2.4.5.8.7 1.2.3.5.5 1 .7 1.5 0 .1.1.2.1.2l-1 .4c-.6.2-.8.9-.6 1.4.2.4.6.7 1 .7.1 0 .3 0 .4-.1l1-.4c.1.2.1.3.2.5.1.4.3.8.4 1.2.2.6.3 1.1.5 1.7v.1l-1 .2c-.6.1-1 .7-.9 1.3.1.5.6.9 1.1.9h.2l1-.2c0 .3.1.6.1.8 0 .3.1.7.2 1 .1.6.1 1.3.1 1.9h-1c-.6 0-1.1.5-1.1 1.1s.5 1.1 1.1 1.1h1c0 .6 0 1.3-.1 1.9 0 .3-.1.7-.2 1 0 .3-.1.6-.1.8l-1-.2c-.6-.1-1.2.3-1.3.9-.1.6.3 1.2.9 1.3l1 .2v.1c-.1.6-.3 1.2-.5 1.7-.1.4-.3.8-.4 1.2-.1.2-.1.3-.2.5l-1-.4c-.6-.2-1.2 0-1.4.6-.2.6 0 1.2.6 1.4l1 .4c0 .1-.1.2-.1.2-.2.5-.5 1-.7 1.5-.2.4-.5.8-.7 1.2-.1.1-.2.3-.3.4l-.9-.6c-.5-.4-1.2-.2-1.5.3-.3.5-.2 1.2.3 1.5l.9.6c-.1.1-.1.2-.2.3-.3.4-.6.9-1 1.3-.3.4-.6.7-1 1-.2.3-.5.5-.8.8-5.6-5.3-8.8-13-8.8-20.9S5.4 16.4 11 10.9zm21 50.9c-7.1 0-13.9-2.5-19.3-7.1.3-.3.5-.6.7-.8.3-.4.7-.7 1-1.1.4-.4.7-.9 1.1-1.4.1-.1.2-.2.2-.3l1 .7c.2.1.4.2.6.2.4 0 .7-.2.9-.5.3-.5.2-1.2-.3-1.5l-1-.7.3-.6c.3-.4.5-.8.7-1.2.3-.5.5-1.1.8-1.6 0-.1.1-.2.1-.3l1.1.5c.1.1.3.1.4.1.4 0 .8-.3 1-.7.2-.6 0-1.2-.6-1.4l-1.1-.5c.1-.2.2-.5.2-.7.2-.4.3-.8.5-1.3.2-.6.3-1.2.5-1.9 0-.1 0-.1.1-.2l1.1.2h.2c.5 0 1-.4 1.1-.9.1-.6-.3-1.2-.9-1.3l-1.1-.2c.1-.3.1-.7.2-1 0-.4.1-.7.2-1.1.1-.7.1-1.4.1-2.1H23c.6 0 1.1-.5 1.1-1.1s-.5-1.1-1.1-1.1h-1c0-.7 0-1.4-.1-2.1 0-.4-.1-.7-.2-1.1 0-.3-.1-.7-.2-1l1.1-.2c.6-.1 1-.7.9-1.3s-.7-1-1.3-.9l-1.1.2c0-.1 0-.1-.1-.2-.2-.6-.3-1.3-.5-1.9-.1-.4-.3-.9-.5-1.3-.1-.2-.2-.5-.2-.7L21 20c.6-.2.8-.9.6-1.4-.2-.6-.9-.8-1.4-.6l-1.2.5c0-.1-.1-.2-.1-.3-.3-.5-.5-1.1-.8-1.6-.2-.4-.5-.8-.7-1.2l-.3-.6 1-.7c.5-.3.6-1 .3-1.5s-1-.6-1.5-.3l-1 .7c-.1-.1-.2-.2-.2-.3-.4-.5-.7-.9-1.1-1.4-.3-.4-.7-.7-1-1.1-.3-.3-.5-.6-.7-.8 5.2-4.7 12-7.2 19.1-7.2s13.9 2.5 19.3 7.1c-.3.3-.5.6-.7.8-.3.4-.7.7-1 1.1-.4.4-.7.9-1.1 1.4-.1.1-.2.2-.2.3l-1-.7c-.5-.4-1.2-.2-1.5.3-.3.5-.2 1.2.3 1.5l1 .7-.3.6c-.3.4-.5.8-.7 1.2-.3.5-.5 1.1-.8 1.6 0 .1-.1.2-.1.3l-1.3-.4c-.6-.2-1.2 0-1.4.6-.2.6 0 1.2.6 1.4l1.1.5c-.1.2-.2.5-.2.7-.2.4-.3.8-.5 1.3-.2.6-.3 1.2-.5 1.9 0 .1 0 .1-.1.2l-1.1-.2c-.6-.1-1.2.3-1.3.9-.1.6.3 1.2.9 1.3l1.1.2c-.1.3-.1.7-.2 1 0 .4-.1.7-.2 1.1-.1.6-.1 1.3-.1 2h-1.2c-.6 0-1.1.5-1.1 1.1s.5 1.1 1.1 1.1H42c0 .7 0 1.4.1 2.1 0 .4.1.7.2 1.1 0 .3.1.7.2 1l-1.1.2c-.6.1-1 .7-.9 1.3.1.5.6.9 1.1.9h.2l1.1-.2c0 .1 0 .1.1.2.2.6.3 1.3.5 1.9.1.4.3.9.5 1.3.1.2.2.5.2.7L43 44c-.6.2-.8.9-.6 1.4.2.4.6.7 1 .7.1 0 .3 0 .4-.1l1.1-.5c0 .1.1.2.1.3.3.5.5 1.1.8 1.6.2.4.5.8.7 1.2l.3.6-1 .7c-.5.3-.6 1-.3 1.5.2.3.6.5.9.5.2 0 .4-.1.6-.2l1-.7c.1.1.2.2.2.3.4.5.7.9 1.1 1.4.3.4.7.7 1 1.1.3.3.5.6.7.8-5.1 4.7-11.9 7.2-19 7.2z" fill="#330d00"/></g></svg>