<svg width="64" height="64" id="Layer_1" version="1.1" xml:space="preserve" xmlns="http://www.w3.org/2000/svg"><style/><path d="M13.9 12.5h4.9c.2-3.4 3-6.1 6.5-6.1h13.5c3.4 0 6.3 2.7 6.5 6.1h9.4c4.6 0 8.4 3.8 8.4 8.4v28.3c0 4.6-3.8 8.4-8.4 8.4H9.4c-4.6 0-8.4-3.8-8.4-8.4V20.9c0-4.6 3.8-8.4 8.4-8.4h4.5z" fill="#1379c2"/><path d="M17.9 11.5c.6-3.5 3.7-6.1 7.3-6.1h13.5c3.6 0 6.7 2.6 7.3 6.1h8.6c5.2 0 9.4 4.2 9.4 9.4v28.3c0 5.2-4.2 9.4-9.4 9.4H9.4c-5.2 0-9.4-4.2-9.4-9.4V20.9c0-2.6 1.1-4.9 2.8-6.6 1.7-1.7 4.1-2.8 6.6-2.8h8.5zm-8.5 1.9c-2.1 0-3.9.8-5.3 2.2-1.4 1.3-2.2 3.2-2.2 5.3v28.3c0 4.1 3.4 7.5 7.4 7.5h45.2c4.1 0 7.4-3.4 7.4-7.5V20.9c0-4.1-3.4-7.4-7.4-7.4H44.3c-.2-3.3-1.9-6.1-5.6-6.1H25.3c-3.6 0-5.4 2.8-5.6 6.1-3.4-.1-6.8-.1-10.3-.1z"/><path fill="#e6e6e6" d="M63 23.2v4.5H1v-4.5h62z"/><path d="M64 23.2v5.5H0v-6.5h64v1zm-1.9 3.5v-2.6H1.9v2.6h60.2z"/><path d="M9.4 12.5v-2.2c0-1.2 1-2.2 2.2-2.2 1.2 0 2.3 1 2.3 2.2v2.2H9.4z" fill="#666"/><path d="M8.4 10.3C8.4 8.5 9.9 7 11.7 7c1.8 0 3.2 1.4 3.2 3.2v3.2H8.5v-3.1h-.1zm2 0v1.2H13v-1.2c0-.7-.6-1.3-1.3-1.3-.7 0-1.3.6-1.3 1.3z"/><path d="M37.8 40.6c0 3.2-2.6 5.8-5.8 5.8s-5.8-2.6-5.8-5.8c0-3.2 2.6-5.8 5.8-5.8s5.8 2.5 5.8 5.8zM32 30.2c-5.7 0-10.3 4.6-10.3 10.3 0 5.7 4.6 10.3 10.3 10.3 5.7 0 10.3-4.6 10.3-10.3 0-5.6-4.6-10.3-10.3-10.3z" fill-rule="evenodd" clip-rule="evenodd" fill="#e6e6e6"/><path d="M38.8 40.6c0 3.8-3.1 6.8-6.8 6.8-3.8 0-6.8-3-6.8-6.8s3.1-6.8 6.8-6.8c3.8 0 6.8 3 6.8 6.8zm-1.9 0c0-2.7-2.2-4.9-4.9-4.9s-4.9 2.2-4.9 4.9 2.2 4.9 4.9 4.9c2.7-.1 4.9-2.2 4.9-4.9zM32 31.2c-5.2 0-9.4 4.2-9.4 9.4S26.8 50 32 50s9.4-4.2 9.4-9.4-4.2-9.4-9.4-9.4zm0-1.9c6.2 0 11.3 5.1 11.3 11.3 0 6.2-5.1 11.3-11.3 11.3s-11.3-5.1-11.3-11.3c0-6.3 5.1-11.3 11.3-11.3z"/></svg>