<svg width="512" height="512" data-name="Camada 1" xmlns="http://www.w3.org/2000/svg"><path d="M433 42.11v422.57a12.23 12.23 0 01-12.34 12.05H91.36A12.23 12.23 0 0179 464.68V42.11a12.23 12.23 0 0112.34-12h329.3a12.23 12.23 0 0112.36 12z" fill="#1d001d"/><rect height="451.74" rx="12" ry="12" width="342.15" x="79.21" y="30.2" fill="#310c31"/><rect height="72.95" rx="12" ry="12" width="124.15" x="125.69" y="367.89" opacity=".8" fill="#e6e6e6"/><path d="M137.24 386.47l101.04-.91m-101.04 19.03l101.04-.91m-101.04 19.04l101.04-.91" fill="none" stroke="#333" stroke-miterlimit="10" stroke-width="2"/><path d="M395.41 31.6v448.89A5.5 5.5 0 01390 486h-29.74a5.51 5.51 0 01-5.47-5.51V31.6a5.55 5.55 0 015.47-5.6H390a5.55 5.55 0 015.41 5.6z" fill="#e6e6e6"/><path stroke="#b3b3b3" stroke-miterlimit="10" stroke-width="2" fill="none" d="M384.24 26v460"/><path stroke="#b3b3b3" stroke-miterlimit="10" stroke-width="2" fill="#e6e6e6" d="M368 26l-1.02 460"/></svg>