<svg width="512" height="512" data-name="Layer 1" id="Layer_1" xmlns="http://www.w3.org/2000/svg"><defs><style>.cls-2{fill:#414042}.cls-3{fill:#231f20}</style></defs><path d="M279.13 285.92q-32.44 98.67-64.88 197.36a7.78 7.78 0 01-2.86-1.1c-22.21-13.91 3.91-144.41 14.09-192.18l41.79-16.75z" fill="#999"/><path class="cls-2" d="M370.65 30c-36.95-7.85-74.32 20.73-83.49 63.83s13.37 84.41 50.31 92.27 74.33-20.73 83.5-63.83S407.6 37.88 370.65 30zm39.91 90.06c-10.56 49.6-49.18 58.46-70.51 53.94-31.2-6.64-50.23-41.53-42.49-77.93s39.31-60.53 70.51-53.9 50.23 41.51 42.49 77.91z"/><path class="cls-2" d="M286.35 99.89c.26-1.2.59-2.39.74-3.61a1.84 1.84 0 000-.33 2.73 2.73 0 00.92-2.21 16 16 0 01.07-2.85c.09-.55.3-1 .39-1.58.34 10.58 2.93 34.84 20.92 57.24 24.55 30.56 59.29 34.67 65.92 35.33a33.92 33.92 0 00-6.62 3.33c-10.89 5.81-24.85 14-37.83 27.49-30.2 31.38-38.4 67.85-41 84.25l-31.15-26.16 27.48-170.52a3.44 3.44 0 00.16-.38z"/><path class="cls-3" d="M368.45 40.31c-31.81-6.76-64 17.84-71.88 55s11.5 72.68 43.31 79.44c21.74 4.62 61.14-4.41 71.88-54.95 7.89-37.16-11.51-72.73-43.31-79.49zm32.25 77.08c-8.68 40.84-40.51 48.14-58.08 44.4-25.7-5.46-41.37-34.19-35-64.18S340 47.75 365.7 53.21s41.38 34.2 35 64.18z"/><path d="M290.09 475.52c-1.55 4.64-3.63 7.91-6.35 9.49a8 8 0 01-1.53.68 8.54 8.54 0 01-1.37.31v-.15q-22.11-76.14-44.24-152.29-6.88-23.56-13.71-47.06l12.29-12.26 41.18 18.2c7.48 42.34 25.07 149.12 13.73 183.08z" fill="#b3b3b3"/><path d="M290.09 475.52c-1.55 4.64-3.63 7.91-6.35 9.49a8 8 0 01-1.53.68 7.52 7.52 0 01-1.41.16q-22.11-76.14-44.24-152.29a9.68 9.68 0 012.61-1.19 9 9 0 011.33-.28 9.75 9.75 0 0110.69 6.91l38.55 134.45a9.69 9.69 0 01.35 2.07z" fill="#ccc"/><path class="cls-2" d="M225.49 99.87c-.22-1.2-.51-2.41-.62-3.63v-.34a2.74 2.74 0 01-.85-2.23 15.09 15.09 0 000-2.85c-.07-.56-.26-1.06-.33-1.6-.71 10.56-4.15 34.72-22.91 56.48-25.6 29.68-60.46 32.58-67.11 33a34.72 34.72 0 016.51 3.56c10.67 6.19 24.34 14.87 36.83 28.8 29.09 32.41 36 69.14 38 85.63l4-3.11.56-.44 27.51-21.51-21.49-171.37a3.69 3.69 0 01-.1-.39z"/><path class="cls-2" d="M149.19 26.33c-37.57 4-64.28 42.68-59.68 86.5S128.3 189 165.87 185s64.29-42.68 59.68-86.51-38.79-76.11-76.36-72.16zM215 99.64c5.3 50.41-28.73 70.78-50.41 73.06-31.72 3.34-60.6-24-64.48-61s18.67-69.72 50.4-73S211.08 62.63 215 99.64z"/><path class="cls-3" d="M150.31 37c-32.5 3.45-55.62 37-51.63 74.87s33.57 65.88 66.07 62.47c22.2-2.34 57.06-23.21 51.63-74.85-3.99-37.91-33.57-65.88-66.07-62.49zm54.77 63.65c4.39 41.72-23.78 58.58-41.72 60.47-26.26 2.76-50.16-19.84-53.38-50.47S125.44 53 151.7 50.21s50.16 19.84 53.38 50.47z"/><circle cx="249.7" cy="304.23" r="6.37" fill="gray"/></svg>