<svg width="64" height="64" xmlns="http://www.w3.org/2000/svg"><style>.st3{fill:#330d00}</style><g id="_x39_-Globe"><path d="M57.4 24.3c0 6.1-2.3 11.6-6.2 15.8-4.3 4.6-10.3 7.5-17.1 7.5S21.3 44.7 17 40.1c-3.8-4.2-6.2-9.7-6.2-15.8 0-6.1 2.3-11.6 6.2-15.8C21.3 4 27.4 1.1 34.1 1.1S47 4 51.2 8.6c3.8 4.1 6.2 9.7 6.2 15.7z" fill="#d32436"/><path fill="#ffeea9" d="M43 58.5H25.3l-2.9 4.4h23.5z"/><path fill="#8dd1d3" d="M36.3 51.9v6.6h-4.4v-6.6"/><path class="st3" d="M9.8 24.4c0 6.1 2.3 12 6.5 16.5 4.6 5 11.1 7.8 17.9 7.8s13.3-2.9 17.9-7.8c4.2-4.5 6.5-10.4 6.5-16.5s-2.3-12-6.5-16.5c-4.7-5-11.2-7.9-18-7.9S20.9 2.9 16.3 7.8c-4.2 4.5-6.5 10.4-6.5 16.6zm10.1-17c.3-.3.6-.5.9-.7.3-.2.5-.4.8-.6.3-.2.7-.4 1-.6.3-.2.6-.4.9-.5.4-.2.7-.4 1.1-.5.3-.1.6-.3.9-.4.3-.1.5-.2.8-.3C25.1 4.9 24 6.3 23.1 8c-.5 1-1 2-1.4 3-1.1-.7-2.1-1.6-3.1-2.5l.5-.5c.3-.1.5-.3.8-.6zm23.8-3c.4.2.7.3 1.1.5.3.2.6.3.9.5.3.2.7.4 1 .6.3.2.6.4.8.6.3.2.6.5.9.7.3.2.5.5.8.7.2.1.3.3.5.5-.9.9-2 1.8-3.1 2.5-.4-1-.9-2-1.4-3-.9-1.7-2-3.2-3.2-4.4.3.1.5.2.8.3.3.2.6.4.9.5zm7.4 34.1c-1.2-1.1-2.4-2.1-3.8-3 1-3.1 1.5-6.5 1.6-10h7.3c-.2 4.8-2 9.3-5.1 13zm-2.7 2.7c-.3.3-.6.5-1 .8-.3.2-.5.4-.8.6-.3.2-.7.4-1 .7-.3.2-.6.3-.9.5-.4.2-.7.4-1.1.5-.3.1-.6.3-.9.4-.3.1-.5.2-.8.3 1.2-1.2 2.3-2.6 3.2-4.4.5-1 1-2 1.4-3 1.1.7 2.1 1.6 3.1 2.5l-.5.5c-.2.2-.4.4-.7.6zm-23.8 3.1c-.4-.2-.7-.4-1.1-.5-.3-.2-.6-.3-.9-.5-.3-.2-.7-.4-1-.6-.3-.2-.6-.4-.8-.6-.3-.2-.6-.5-.9-.7-.3-.2-.5-.5-.8-.7-.2-.1-.3-.3-.5-.5.9-.9 2-1.8 3.1-2.5.4 1.1.9 2.1 1.4 3 .9 1.7 2 3.2 3.2 4.4-.3-.1-.5-.2-.8-.3-.3-.2-.6-.4-.9-.5zm-5.3-18.8c.1 3.5.6 6.9 1.6 10-1.4.9-2.6 1.9-3.8 3-3.1-3.7-4.9-8.3-5.1-13.1h7.3zm15.9 8.3c3.3.2 6.5 1.1 9.4 2.6-.4 1.1-.9 2.2-1.4 3.2-2.1 3.9-5 6.3-8 6.8V33.8zm0-2.2v-6.2h11.5c-.1 3.1-.6 6.1-1.4 8.9-3.1-1.6-6.5-2.5-10.1-2.7zm0-8.4V17c3.5-.2 7-1.1 10.1-2.7.8 2.8 1.3 5.7 1.4 8.9H35.2zm0-8.3V2.3c3 .5 5.9 2.9 8 6.8.5 1 1 2 1.4 3.2-2.8 1.5-6 2.4-9.4 2.6zm-2.2 0c-3.3-.2-6.5-1.1-9.4-2.6.4-1.1.9-2.2 1.4-3.2 2.1-3.9 5-6.3 8-6.8v12.6zm0 2.2v6.2H21.6c.1-3.1.6-6.1 1.4-8.9 3.1 1.6 6.5 2.5 10 2.7zm0 8.4v6.2c-3.5.2-7 1.1-10.1 2.7-.8-2.7-1.3-5.7-1.4-8.9H33zm0 8.3v12.6c-3-.5-5.9-2.9-8-6.8-.5-1-1-2-1.4-3.2 2.9-1.5 6.1-2.4 9.4-2.6zm15.9-10.6c-.1-3.5-.6-6.9-1.6-10 1.4-.9 2.6-1.9 3.8-3 3.1 3.7 4.9 8.3 5.1 13.1h-7.3zm-29.6 0H12c.2-4.8 2-9.4 5.1-13.1 1.2 1.1 2.4 2.1 3.8 3-.9 3.2-1.5 6.6-1.6 10.1z"/><path class="st3" d="M54.4 43l-.8-.8c-.4-.4-1.1-.4-1.6 0-.4.4-.4 1.1 0 1.5-4.9 4.5-11.2 7-17.9 7-14.6 0-26.4-11.9-26.4-26.4 0-6.7 2.5-13 7-17.9.4.3 1 .2 1.4-.1.4-.4.4-1.1 0-1.6l-.6-.6h-.1l-1.3-1.4c-.4-.4-1.1-.4-1.6 0-.4.4-.4 1.1 0 1.6l.7.7c-4.9 5.3-7.6 12.1-7.6 19.4 0 14.7 11.1 26.8 25.3 28.4v4.6h-5.5c-.4 0-.7.2-.9.5l-2.9 4.4c-.2.3-.2.8-.1 1.1.2.4.6.6 1 .6H46c.4 0 .8-.2 1-.6s.2-.8-.1-1.1L44 57.9c-.2-.3-.5-.5-.9-.5h-5.5v-4.6c6-.7 11.6-3.3 16.1-7.4l.6.6c.2.2.5.3.8.3.3 0 .6-.1.8-.3.4-.4.4-1.1 0-1.6L54.4 43zM43.8 61.8H24.4l1.5-2.2h16.4l1.5 2.2zm-8.6-4.4H33v-4.5c.4 0 .7.1 1.1.1.4 0 .7 0 1.1-.1v4.5z"/></g></svg>