<svg width="30" height="30" id="Layer_1" version="1.1" xml:space="preserve" xmlns="http://www.w3.org/2000/svg"><style/><path d="M16.3 11.2c0-1.1-.5-2.2-1.3-3L8.8 2.5c-.3-.3-.8-.3-1.1 0-.3.3-.3.8 0 1.1L12.4 9c.2.2.2.6 0 .9-.2.2-.6.2-.9 0L6.1 5.1c-.3-.3-.8-.3-1.1 0-.3.3-.3.8 0 1.1l4.8 5.5c.2.2.2.6 0 .9-.2.2-.6.2-.9 0L3.5 7.8c-.3-.3-.8-.3-1.1 0-.3.3-.3.8 0 1.1L8 15.1c.8.9 2 1.4 3.2 1.3l1.6-.1c.6 0 1.2.2 1.6.7l8.8 9.9c1 1.2 2.8 1.2 3.9.1 1.1-1.1 1-2.9-.1-3.9l-10-8.9c-.4-.4-.7-.9-.7-1.5v-1.5z" fill="#f498bd"/></svg>