<svg width="512" height="512" xmlns="http://www.w3.org/2000/svg"><path d="M356 445.385H156c-12.131 0-22-9.869-22-22v-314c0-12.131 9.869-22 22-22h41c5.523 0 10 4.477 10 10v9.69c0 .313.701 1.08 2 1.08h94c1.299 0 2-.767 2-1.08v-9.69c0-5.523 4.477-10 10-10h41c12.131 0 22 9.869 22 22v314c0 12.131-9.869 22-22 22zm-200-338c-1.103 0-2 .897-2 2v314c0 1.103.897 2 2 2h200c1.103 0 2-.897 2-2v-314c0-1.103-.897-2-2-2h-31.002c-.174 11.481-9.975 20.771-21.998 20.771h-94c-12.023 0-21.824-9.29-21.998-20.771H156z" fill="#444B54"/><path d="M303 128.155h-94c-12.131 0-22-9.457-22-21.08v-19.38c0-11.624 9.869-21.08 22-21.08h94c12.131 0 22 9.457 22 21.08v19.38c0 11.624-9.869 21.08-22 21.08zm-94-41.54c-1.299 0-2 .767-2 1.08v19.38c0 .313.701 1.08 2 1.08h94c1.299 0 2-.767 2-1.08v-19.38c0-.313-.701-1.08-2-1.08h-94z" fill="#444B54"/><path d="M355.906 167.385H157.723c-12.158 0-22.049-9.869-22.049-22v-35.5c0-12.131 9.891-22 22.049-22h38.528c5.523 0 10 4.477 10 10v9.19c0 .33.774 1.08 2.05 1.08h94.388c1.275 0 2.049-.75 2.049-1.08v-9.19c0-5.523 4.477-10 10-10h41.168c12.158 0 22.05 9.869 22.05 22v35.5c0 12.131-9.892 22-22.05 22zm-198.183-59.5c-1.13 0-2.049.897-2.049 2v35.5c0 1.103.919 2 2.049 2h198.183c1.13 0 2.05-.897 2.05-2v-35.5c0-1.103-.919-2-2.05-2h-31.185c-.446 11.25-10.159 20.271-22.033 20.271H208.3c-11.875 0-21.587-9.021-22.034-20.271h-28.543zm82.027 223a9.966 9.966 0 01-7.071-2.929l-24.5-24.5c-3.905-3.905-3.905-10.237 0-14.143s10.237-3.905 14.143 0l17.429 17.429 51.929-51.929c3.905-3.905 10.237-3.905 14.143 0s3.905 10.237 0 14.143l-59 59a9.974 9.974 0 01-7.073 2.929z" fill="#444B54"/><path d="M368 109.385v314c0 6.63-5.37 12-12 12H156c-6.63 0-12-5.37-12-12v-314c0-6.63 5.37-12 12-12h41v9.69c0 6.12 5.37 11.08 12 11.08h94c6.63 0 12-4.96 12-11.08v-9.69h41c6.63 0 12 5.37 12 12z" fill="#65A0D6"/><path d="M356 445.385H156c-12.131 0-22-9.869-22-22v-314c0-12.131 9.869-22 22-22h41c5.523 0 10 4.477 10 10v9.69c0 .313.701 1.08 2 1.08h94c1.299 0 2-.767 2-1.08v-9.69c0-5.523 4.477-10 10-10h41c12.131 0 22 9.869 22 22v314c0 12.131-9.869 22-22 22zm-200-338c-1.103 0-2 .897-2 2v314c0 1.103.897 2 2 2h200c1.103 0 2-.897 2-2v-314c0-1.103-.897-2-2-2h-31.002c-.174 11.481-9.975 20.771-21.998 20.771h-94c-12.023 0-21.824-9.29-21.998-20.771H156z" fill="#444B54"/><path d="M315 87.695v19.38c0 6.12-5.37 11.08-12 11.08h-94c-6.63 0-12-4.96-12-11.08v-19.38c0-6.12 5.37-11.08 12-11.08h94c6.63 0 12 4.96 12 11.08z" fill="#3C74BA"/><path d="M303 128.155h-94c-12.131 0-22-9.457-22-21.08v-19.38c0-11.624 9.869-21.08 22-21.08h94c12.131 0 22 9.457 22 21.08v19.38c0 11.624-9.869 21.08-22 21.08zm-94-41.54c-1.299 0-2 .767-2 1.08v19.38c0 .313.701 1.08 2 1.08h94c1.299 0 2-.767 2-1.08v-19.38c0-.313-.701-1.08-2-1.08h-94z" fill="#444B54"/><path d="M367.956 109.885v35.5c0 6.63-5.392 12-12.05 12H157.723c-6.647 0-12.049-5.37-12.049-12v-35.5c0-6.63 5.402-12 12.049-12h38.528v9.19c0 6.12 5.393 11.08 12.05 11.08h94.388c6.657 0 12.049-4.96 12.049-11.08v-9.19h41.168c6.658 0 12.05 5.37 12.05 12z" fill="#D9DCE1"/><path d="M355.906 167.385H157.723c-12.158 0-22.049-9.869-22.049-22v-35.5c0-12.131 9.891-22 22.049-22h38.528c5.523 0 10 4.477 10 10v9.19c0 .33.774 1.08 2.05 1.08h94.388c1.275 0 2.049-.75 2.049-1.08v-9.19c0-5.523 4.477-10 10-10h41.168c12.158 0 22.05 9.869 22.05 22v35.5c0 12.131-9.892 22-22.05 22zm-198.183-59.5c-1.13 0-2.049.897-2.049 2v35.5c0 1.103.919 2 2.049 2h198.183c1.13 0 2.05-.897 2.05-2v-35.5c0-1.103-.919-2-2.05-2h-31.185c-.446 11.25-10.159 20.271-22.033 20.271H208.3c-11.875 0-21.587-9.021-22.034-20.271h-28.543zm82.027 223a9.966 9.966 0 01-7.071-2.929l-24.5-24.5c-3.905-3.905-3.905-10.237 0-14.143s10.237-3.905 14.143 0l17.429 17.429 51.929-51.929c3.905-3.905 10.237-3.905 14.143 0s3.905 10.237 0 14.143l-59 59a9.974 9.974 0 01-7.073 2.929z" fill="#444B54"/></svg>